PathFileType	3	(X/Y/Z)	C:\Users\koon_\Desktop\
DataRate	CameraRate	NumFrames	NumMarkers	Units	OrigDataRate	OrigDataStartFrame	OrigNumFrames
100.0	100.0	5	27	mm	100.0	676	2700	
Frame#	Time	get:LFHD			get:RFHD			get:LBHD			get:RBHD			get:C7			get:T10			get:CLAV			get:STRN			get:RBAK			get:LSHO			get:LUPA			get:LELB			get:LFRA			get:LWRA			get:LWRB			get:LFIN			get:RSHO			get:RUPA			get:RELB			get:RFRA			get:RWRA			get:RWRB			get:RFIN			get:LASI			get:RASI			get:LPSI			get:RPSI			
		X1	Y1	Z1	X2	Y2	Z2	X3	Y3	Z3	X4	Y4	Z4	X5	Y5	Z5	X6	Y6	Z6	X7	Y7	Z7	X8	Y8	Z8	X9	Y9	Z9	X10	Y10	Z10	X11	Y11	Z11	X12	Y12	Z12	X13	Y13	Z13	X14	Y14	Z14	X15	Y15	Z15	X16	Y16	Z16	X17	Y17	Z17	X18	Y18	Z18	X19	Y19	Z19	X20	Y20	Z20	X21	Y21	Z21	X22	Y22	Z22	X23	Y23	Z23	X24	Y24	Z24	X25	Y25	Z25	X26	Y26	Z26	X27	Y27	Z27	
676	6.75	80.262215	1560.307	-26.292789	-60.775913	1555.6812	-25.990404	55.868473	1563.1267	-186.86975	-72.748848	1534.532	-191.74641	18.836464	1342.0698	-211.40196	1.7828178	1136.0522	-234.47949	7.7979503	1278.3499	-5.9241786	9.6488876	1083.5939	46.751057	-63.101501	1267.9432	-237.89401	139.1877	1336.0244	-126.85099	246.9706	1220.2625	-126.00961	308.21185	1058.3115	-168.38499	401.77771	951.7666	-133.321	447.31561	887.93164	-110.81966	377.26038	848.45416	-135.81624	458.63153	816.53369	-173.96434	-108.44855	1346.9095	-132.614	-285.16199	1214.0747	-147.09567	-299.77948	1087.5745	-186.58502	-393.88678	1084.8911	-177.25609	-493.76624	960.0946	-159.64922	-432.78528	911.41949	-180.12556	-529.92554	895.22858	-211.3002	131.49315	891.815	-5.3799987	-131.34851	878.32715	-9.5859785	45.532154	956.65723	-217.66551	-44.343292	954.16101	-221.21338
677	6.76	80.621239	1560.1306	-26.022318	-60.473671	1555.4824	-25.886679	56.340523	1563.2441	-186.61568	-72.299004	1534.6075	-191.60965	18.990822	1342.1024	-211.35709	1.6943306	1135.4199	-234.60094	8.0460901	1278.072	-6.0236278	9.6039915	1083.3972	46.966042	-62.734524	1267.9264	-238.02388	140.09866	1334.8109	-126.83704	245.04543	1216.3079	-125.6147	300.94012	1051.661	-168.15533	390.18185	941.48938	-133.74043	433.07056	875.77332	-111.63125	361.67331	839.40051	-137.06871	441.34393	804.36182	-175.26639	-109.55987	1346.1542	-132.13385	-282.91364	1207.3397	-145.47566	-293.36032	1080.8962	-185.76912	-387.1459	1074.5675	-175.38226	-482.12994	946.20911	-157.63441	-419.60803	899.81775	-178.90045	-516.24927	880.17914	-209.05055	131.37849	891.72906	-5.1332169	-131.44379	878.27777	-9.4775181	45.545383	956.71045	-217.51607	-44.378464	954.04364	-220.92592
678	6.77	80.942139	1559.9316	-25.76111	-60.161034	1555.2836	-25.808781	56.805725	1563.2882	-186.44269	-71.833969	1534.6316	-191.56798	18.988161	1341.9519	-211.25822	1.5742835	1134.8477	-234.71745	8.3106346	1277.7621	-6.0688791	9.5777302	1083.256	47.142097	-62.562786	1267.6509	-238.16783	140.85909	1333.7968	-126.87324	243.34546	1212.8434	-125.44161	294.24878	1045.8302	-168.55275	378.68634	932.00549	-134.16757	418.92972	864.62854	-112.58698	346.12476	831.09894	-137.89339	424.15515	793.44513	-177.03107	-110.46495	1345.4354	-131.98563	-280.7851	1200.9418	-143.64392	-286.92981	1074.5605	-184.99011	-380.20865	1064.5898	-173.41844	-470.20837	932.8407	-155.56071	-406.21631	888.84393	-177.70641	-502.25037	866.09729	-207.03075	131.2527	891.66864	-4.9228783	-131.56688	878.20251	-9.3439789	45.465221	956.67554	-217.32841	-44.396553	954.15735	-220.95772
679	6.78	81.289215	1559.7332	-25.553572	-59.842003	1555.0723	-25.736828	57.329014	1563.321	-186.22891	-71.349571	1534.6281	-191.41924	18.971478	1341.8497	-211.28156	1.5379562	1134.4152	-234.79968	8.5568323	1277.5352	-6.1762786	9.6181545	1083.1183	47.289291	-62.525661	1267.5712	-238.27745	141.49126	1332.9425	-126.96581	241.6394	1209.8601	-125.47338	287.41214	1040.3492	-168.54144	367.33478	923.31903	-134.53761	405.04654	854.44574	-113.51205	331.01279	823.96906	-138.73592	406.95969	783.4892	-178.30707	-111.34629	1344.6644	-131.832	-278.44028	1194.7759	-142.21896	-280.47086	1068.6614	-184.25526	-373.14523	1055.1899	-171.76321	-458.06024	920.23529	-153.86433	-392.6806	878.54993	-176.53458	-487.83008	852.43024	-205.22002	131.13942	891.60382	-4.7457933	-131.69322	878.16357	-9.1573639	45.389111	956.68402	-217.15005	-44.513008	954.14362	-220.83418
680	6.79	81.605553	1559.5417	-25.38176	-59.491581	1554.9252	-25.722824	57.847992	1563.3221	-186.06374	-70.870697	1534.6589	-191.3763	19.033134	1341.8978	-211.57487	1.4596238	1134.0607	-234.91	8.7565193	1277.3096	-6.3223014	9.6977358	1082.9712	47.450344	-62.510273	1267.5153	-238.36595	142.07504	1332.3293	-127.09022	240.04013	1207.3258	-125.65479	280.61615	1035.3263	-168.48558	356.16669	915.57416	-134.90288	391.46024	845.29315	-114.30562	316.39914	817.89355	-139.69862	390.34183	774.84314	-179.75595	-112.17056	1343.8834	-131.54652	-276.21286	1188.9575	-140.58784	-274.03375	1063.1589	-183.56482	-365.901	1046.2256	-170.13109	-445.42438	908.19519	-152.61583	-379.11502	869.07452	-175.46843	-473.22186	839.51587	-203.7002	131.02026	891.55151	-4.5722771	-131.81657	878.11737	-8.9595842	45.254383	956.7663	-217.10112	-44.644424	954.10028	-220.68118
